<svg width="22" height="23" viewBox="0 0 22 23" fill="none" xmlns="http://www.w3.org/2000/svg">
<path d="M11.0049 5.88478C7.88172 5.88478 5.36252 8.38967 5.36252 11.4951C5.36252 14.6006 7.88172 17.1055 11.0049 17.1055C14.1281 17.1055 16.6473 14.6006 16.6473 11.4951C16.6473 8.38967 14.1281 5.88478 11.0049 5.88478ZM11.0049 15.1426C8.98663 15.1426 7.33663 13.5069 7.33663 11.4951C7.33663 9.48342 8.98172 7.84767 11.0049 7.84767C13.0281 7.84767 14.6732 9.48342 14.6732 11.4951C14.6732 13.5069 13.0232 15.1426 11.0049 15.1426ZM18.1942 5.65529C18.1942 6.38283 17.6049 6.96389 16.8781 6.96389C16.1464 6.96389 15.5621 6.37795 15.5621 5.65529C15.5621 4.93263 16.1514 4.3467 16.8781 4.3467C17.6049 4.3467 18.1942 4.93263 18.1942 5.65529ZM21.9313 6.98342C21.8478 5.23049 21.4451 3.67775 20.1536 2.39845C18.867 1.11916 17.3054 0.718765 15.5424 0.630875C13.7255 0.528336 8.27948 0.528336 6.46252 0.630875C4.70448 0.713883 3.14288 1.11427 1.85136 2.39357C0.559842 3.67287 0.162074 5.2256 0.0736816 6.97853C-0.0294434 8.78517 -0.0294434 14.2002 0.0736816 16.0069C0.157164 17.7598 0.559842 19.3125 1.85136 20.5918C3.14288 21.8711 4.69957 22.2715 6.46252 22.3594C8.27948 22.4619 13.7255 22.4619 15.5424 22.3594C17.3054 22.2764 18.867 21.876 20.1536 20.5918C21.4402 19.3125 21.8429 17.7598 21.9313 16.0069C22.0344 14.2002 22.0344 8.79006 21.9313 6.98342ZM19.5839 17.9453C19.2009 18.9024 18.4594 19.6397 17.492 20.0254C16.0433 20.5967 12.6058 20.4649 11.0049 20.4649C9.40404 20.4649 5.96163 20.5918 4.51788 20.0254C3.55538 19.6446 2.81386 18.9072 2.42591 17.9453C1.85136 16.5049 1.98395 13.0869 1.98395 11.4951C1.98395 9.90334 1.85627 6.48049 2.42591 5.04494C2.80895 4.08791 3.55047 3.3506 4.51788 2.96486C5.96654 2.39357 9.40404 2.52541 11.0049 2.52541C12.6058 2.52541 16.0482 2.39845 17.492 2.96486C18.4545 3.34572 19.196 4.08302 19.5839 5.04494C20.1585 6.48537 20.0259 9.90334 20.0259 11.4951C20.0259 13.0869 20.1585 16.5098 19.5839 17.9453Z" fill="#404040"/>
</svg>
